<svg xmlns="http://www.w3.org/2000/svg" width="19" height="18" viewBox="0 0 920 860"><g fill="#000000"><path d="M690 179 C676 135 689 45 733 32 C779 18 809 64 809 117 C809 147 796 178 775 198 L743 180 C761 159 772 136 772 113 Q773 58 744 66 C721 73 716 126 727 160 Z"/><path fill-rule="evenodd" d="M204 256 Q204 213 252 198 L703 156 Q754 153 795 194 L880 637 Q896 695 845 731 L365 805 Q305 815 276 762 Z M258 268 Q257 244 285 238 L700 201 Q723 200 733 231 L807 642 Q813 676 784 683 L367 745 Q337 750 326 724 Z"/><path opacity="0.48" d="M258 268 Q257 244 285 238 L700 201 Q723 200 733 231 L807 642 Q813 676 784 683 L367 745 Q337 750 326 724 Z"/><path d="M748 213 L779 214 L846 628 Q854 664 826 680 L815 649 Z"/></g></svg>
