<svg xmlns="http://www.w3.org/2000/svg" width="22" height="18" viewBox="0 0 22 18"><g fill="#000000" transform="translate(0.8578680 -0.6446701) scale(0.0203046)"><g transform="translate(0.000000,1000.000000) scale(1.000000,-1.000000)"><path fill-rule="evenodd" d="M472 918 c-67 -6 -130 -31 -183 -73 -22 -17 -59 -57 -58 -62 1 -1 0 -2 -1 -2 -4 2 -35 -50 -49 -83 -14 -31 -28 -80 -31 -106 0 -2 -1 -9 -2 -16 -7 -61 1 -121 21 -170 5 -12 5 -12 8 -10 4 3 5 0 2 -4 -2 -2 -2 -3 -2 -6 2 -11 8 -36 10 -39 1 -2 2 -4 1 -4 -2 0 -1 -2 8 -19 33 -62 71 -118 114 -171 11 -12 11 -13 17 -15 7 -2 26 -6 33 -6 l6 -1 18 10 c17 9 17 10 17 13 0 3 1 3 3 3 2 0 6 1 8 4 1 0 2 1 3 1 4 0 25 15 32 23 12 13 13 31 3 50 -7 14 -121 184 -129 193 -12 12 -27 17 -41 14 -11 -3 -36 -18 -38 -23 0 -1 -1 -2 -2 -2 -3 0 -7 -6 -6 -8 0 -2 0 -2 -2 0 -3 4 -4 4 -8 0 -4 -3 -4 -1 -1 3 3 4 1 10 -3 10 -4 0 -4 0 -2 3 4 7 4 11 -3 24 -28 59 -35 115 -21 175 8 32 22 68 39 98 4 7 7 13 7 13 -1 1 0 3 2 4 3 2 19 25 19 27 0 2 0 3 -2 3 -2 1 -4 1 -4 2 0 0 0 0 1 1 0 1 1 2 1 1 4 -2 24 7 38 17 5 3 14 10 20 14 88 60 204 73 304 33 27 -10 51 -24 79 -43 17 -13 31 -19 40 -20 5 -1 9 -4 4 -4 -1 0 -3 -1 -4 -2 l-2 -1 9 -13 c5 -7 10 -14 11 -15 2 -1 3 -3 3 -4 0 -1 2 -6 5 -10 29 -50 48 -112 48 -158 0 -41 -9 -77 -28 -117 -7 -13 -7 -18 -4 -24 3 -4 3 -5 -1 -5 -4 1 -7 -4 -4 -8 3 -4 2 -5 -2 -2 l-3 2 -3 -3 -2 -3 0 3 c0 3 -4 7 -7 7 0 0 -1 1 -1 2 -2 4 -19 16 -31 21 -19 7 -37 2 -52 -17 -11 -13 -122 -180 -127 -191 l-4 -9 0 -12 c0 -14 1 -18 11 -28 9 -10 26 -21 31 -21 1 0 2 0 2 -1 0 -1 5 -4 8 -4 3 0 4 -1 2 -3 -2 -2 -1 -3 27 -18 8 -5 9 -5 14 -4 8 0 25 4 33 6 l7 3 11 13 c40 49 77 104 107 158 13 24 16 30 15 31 -1 0 0 2 1 5 2 4 10 38 10 41 0 1 -1 3 -2 4 -3 2 -3 6 1 4 4 -3 4 -2 14 22 35 94 18 228 -43 330 -8 14 -22 33 -23 32 0 0 -1 1 -1 3 -2 5 -27 34 -46 51 -69 60 -161 91 -250 83z M474 896 c-69 -6 -136 -36 -196 -87 -12 -10 -27 -24 -27 -25 0 -2 10 -10 12 -10 3 0 9 3 24 14 95 67 197 87 301 61 44 -12 88 -34 134 -67 14 -10 16 -10 23 -4 l5 6 -7 7 c-59 56 -132 94 -204 104 -14 1 -52 2 -65 1z M281 442 c-11 -3 -28 -14 -37 -22 l-5 -4 82 -129 c45 -71 83 -130 84 -130 0 0 2 1 4 2 1 1 7 4 12 6 34 18 44 41 29 70 -7 14 -121 184 -129 193 -12 12 -27 17 -40 14z M697 441 c-9 -3 -16 -9 -23 -18 -11 -13 -122 -181 -127 -191 l-4 -9 0 -12 c0 -14 1 -18 11 -28 6 -7 11 -10 27 -19 5 -2 9 -5 10 -6 2 0 4 -1 4 -1 1 0 38 58 83 128 44 69 81 128 82 129 1 2 1 2 -1 3 -1 0 -2 1 -2 1 0 2 -5 6 -14 12 -19 12 -32 15 -46 11z"/><path opacity="0.48" fill-rule="evenodd" d="M474 896 c-69 -6 -136 -36 -196 -87 -12 -10 -27 -24 -27 -25 0 -2 10 -10 12 -10 3 0 9 3 24 14 95 67 197 87 301 61 44 -12 88 -34 134 -67 14 -10 16 -10 23 -4 l5 6 -7 7 c-59 56 -132 94 -204 104 -14 1 -52 2 -65 1z M281 442 c-11 -3 -28 -14 -37 -22 l-5 -4 82 -129 c45 -71 83 -130 84 -130 0 0 2 1 4 2 1 1 7 4 12 6 34 18 44 41 29 70 -7 14 -121 184 -129 193 -12 12 -27 17 -40 14z M697 441 c-9 -3 -16 -9 -23 -18 -11 -13 -122 -181 -127 -191 l-4 -9 0 -12 c0 -14 1 -18 11 -28 6 -7 11 -10 27 -19 5 -2 9 -5 10 -6 2 0 4 -1 4 -1 1 0 38 58 83 128 44 69 81 128 82 129 1 2 1 2 -1 3 -1 0 -2 1 -2 1 0 2 -5 6 -14 12 -19 12 -32 15 -46 11z"/></g></g></svg>
